<svg width="56" height="57" viewBox="0 0 56 57" fill="none" xmlns="http://www.w3.org/2000/svg">
<circle cx="28" cy="28.447" r="28" fill="url(#paint0_linear_72_1038)"/>
<g clip-path="url(#clip0_72_1038)">
<path d="M39.6663 20.4904L26.3547 33.8137L21.408 28.8671L23.053 27.2221L26.3547 30.5237L38.0213 18.8571L39.6663 20.4904ZM27.9997 37.7804C22.8547 37.7804 18.6663 33.5921 18.6663 28.4471C18.6663 23.3021 22.8547 19.1137 27.9997 19.1137C29.8313 19.1137 31.5463 19.6504 32.993 20.5721L34.6847 18.8804C32.783 17.5621 30.4847 16.7804 27.9997 16.7804C21.5597 16.7804 16.333 22.0071 16.333 28.4471C16.333 34.8871 21.5597 40.1137 27.9997 40.1137C30.018 40.1137 31.9197 39.6004 33.5763 38.6904L31.8263 36.9404C30.6597 37.4771 29.3647 37.7804 27.9997 37.7804ZM36.1663 31.9471H32.6663V34.2804H36.1663V37.7804H38.4997V34.2804H41.9997V31.9471H38.4997V28.4471H36.1663V31.9471Z" fill="white"/>
</g>
<defs>
<linearGradient id="paint0_linear_72_1038" x1="0" y1="28.447" x2="56" y2="28.447" gradientUnits="userSpaceOnUse">
<stop stop-color="#EE5D50"/>
<stop offset="1" stop-color="#EA4335"/>
</linearGradient>
<clipPath id="clip0_72_1038">
<rect width="28" height="28" fill="white" transform="translate(14 14.447)"/>
</clipPath>
</defs>
</svg>
