<svg width="56" height="57" viewBox="0 0 56 57" fill="none" xmlns="http://www.w3.org/2000/svg">
<circle cx="28" cy="28.447" r="28" fill="url(#paint0_linear_72_1016)"/>
<g clip-path="url(#clip0_72_1016)">
<path d="M27.6734 27.0868C24.5672 26.2795 23.5682 25.4448 23.5682 24.1448C23.5682 22.6532 24.9503 21.6132 27.2629 21.6132C29.206 21.6132 30.1776 22.3522 30.5334 23.529C30.6976 24.0764 31.1492 24.4869 31.7239 24.4869H32.1344C33.0376 24.4869 33.6807 23.5974 33.366 22.749C32.7913 21.1343 31.4502 19.7933 29.3155 19.2733V18.3291C29.3155 17.1933 28.3987 16.2765 27.2629 16.2765C26.1271 16.2765 25.2103 17.1933 25.2103 18.3291V19.2322C22.5556 19.8069 20.4209 21.5311 20.4209 24.1721C20.4209 27.3332 23.0345 28.9068 26.8524 29.8236C30.2734 30.6447 30.9576 31.8489 30.9576 33.1215C30.9576 34.0657 30.2871 35.5709 27.2629 35.5709C25.005 35.5709 23.8419 34.7636 23.3903 33.6141C23.1851 33.0804 22.7198 32.6973 22.1588 32.6973H21.7756C20.8588 32.6973 20.2156 33.6278 20.5577 34.4762C21.3377 36.3783 23.1577 37.5004 25.2103 37.9383V38.8551C25.2103 39.9909 26.1271 40.9077 27.2629 40.9077C28.3987 40.9077 29.3155 39.9909 29.3155 38.8551V37.9656C31.9839 37.4593 34.1049 35.913 34.1049 33.1078C34.1049 29.2216 30.7797 27.8942 27.6734 27.0868Z" fill="white"/>
</g>
<defs>
<linearGradient id="paint0_linear_72_1016" x1="28" y1="0.447021" x2="28" y2="56.447" gradientUnits="userSpaceOnUse">
<stop stop-color="#13C471"/>
<stop offset="0.85" stop-color="#058152"/>
</linearGradient>
<clipPath id="clip0_72_1016">
<rect width="32.8417" height="32.8417" fill="white" transform="translate(11.5264 12.1713)"/>
</clipPath>
</defs>
</svg>
