<svg width="20" height="21" viewBox="0 0 20 21" fill="none" xmlns="http://www.w3.org/2000/svg">
<path d="M12.5 10.2422C12.5 10.7366 12.3534 11.22 12.0787 11.6311C11.804 12.0422 11.4135 12.3627 10.9567 12.5519C10.4999 12.7411 9.99723 12.7906 9.51228 12.6942C9.02732 12.5977 8.58187 12.3596 8.23223 12.01C7.8826 11.6603 7.6445 11.2149 7.54804 10.7299C7.45157 10.245 7.50108 9.74229 7.6903 9.28548C7.87952 8.82866 8.19995 8.43822 8.61108 8.16351C9.0222 7.88881 9.50555 7.74219 10 7.74219C10.663 7.74219 11.2989 8.00558 11.7678 8.47442C12.2366 8.94326 12.5 9.57915 12.5 10.2422Z" stroke="#DADADA" stroke-width="1.5" stroke-linecap="round" stroke-linejoin="round"/>
<path d="M1.66699 10.9754V9.50875C1.66831 9.08923 1.83555 8.68727 2.1322 8.39062C2.42884 8.09397 2.8308 7.92673 3.25033 7.92542C4.75866 7.92542 5.37533 6.85875 4.61699 5.55042C4.40878 5.1867 4.35327 4.75527 4.46261 4.3507C4.57196 3.94612 4.83724 3.60139 5.20033 3.39208L6.64199 2.56708C6.96035 2.38186 7.33918 2.33048 7.69538 2.42422C8.05157 2.51795 8.35604 2.74915 8.54199 3.06708L8.63366 3.22542C9.38366 4.53375 10.617 4.53375 11.3753 3.22542L11.467 3.06708C11.6529 2.74915 11.9574 2.51795 12.3136 2.42422C12.6698 2.33048 13.0486 2.38186 13.367 2.56708L14.8087 3.39208C15.1717 3.60139 15.437 3.94612 15.5464 4.3507C15.6557 4.75527 15.6002 5.1867 15.392 5.55042C14.6337 6.85875 15.2503 7.92542 16.7587 7.92542C17.1782 7.92673 17.5801 8.09397 17.8768 8.39062C18.1734 8.68727 18.3407 9.08923 18.342 9.50875V10.9754C18.3407 11.3949 18.1734 11.7969 17.8768 12.0935C17.5801 12.3902 17.1782 12.5574 16.7587 12.5587C15.2503 12.5587 14.6337 13.6254 15.392 14.9337C15.6002 15.2975 15.6557 15.7289 15.5464 16.1335C15.437 16.538 15.1717 16.8828 14.8087 17.0921L13.367 17.9171C13.0486 18.1023 12.6698 18.1537 12.3136 18.0599C11.9574 17.9662 11.6529 17.735 11.467 17.4171L11.3753 17.2587C10.6253 15.9504 9.39199 15.9504 8.63366 17.2587L8.54199 17.4171C8.35604 17.735 8.05157 17.9662 7.69538 18.0599C7.33918 18.1537 6.96035 18.1023 6.64199 17.9171L5.20033 17.0921C4.83724 16.8828 4.57196 16.538 4.46261 16.1335C4.35327 15.7289 4.40878 15.2975 4.61699 14.9337C5.37533 13.6254 4.75866 12.5587 3.25033 12.5587C2.8308 12.5574 2.42884 12.3902 2.1322 12.0935C1.83555 11.7969 1.66831 11.3949 1.66699 10.9754Z" stroke="#DADADA" stroke-width="1.5" stroke-linecap="round" stroke-linejoin="round"/>
</svg>
